<svg width="66" height="37" viewBox="0 0 66 37" fill="none" xmlns="http://www.w3.org/2000/svg">
<g clip-path="url(#clip0_35_325)">
<path d="M36.1325 19.6077C36.1325 20.1257 36.4008 20.5454 36.9373 20.8669C37.4737 21.1706 38.1213 21.4205 38.8796 21.617C39.6381 21.7957 40.3966 22.01 41.155 22.26C41.9135 22.4922 42.5609 22.903 43.0975 23.4924C43.6339 24.0639 43.9021 24.8051 43.9021 25.716C43.9021 26.9306 43.4119 27.904 42.4315 28.6361C41.4695 29.3684 40.2301 29.7346 38.7131 29.7346C37.3628 29.7346 36.2066 29.4488 35.2446 28.8773C34.2827 28.3058 33.5982 27.5467 33.1913 26.6001L35.2724 25.4481C35.4944 26.0911 35.9106 26.6001 36.5211 26.9752C37.1315 27.3503 37.8623 27.5378 38.7131 27.5378C39.5087 27.5378 40.1654 27.3949 40.6833 27.1092C41.2012 26.8055 41.4602 26.3411 41.4602 25.716C41.4602 25.198 41.1921 24.7872 40.6556 24.4836C40.119 24.1621 39.4716 23.9121 38.7131 23.7335C37.9548 23.537 37.1963 23.3138 36.4378 23.0637C35.6794 22.8137 35.0319 22.4029 34.4954 21.8313C33.959 21.2598 33.6908 20.5276 33.6908 19.6346C33.6908 18.4736 34.1532 17.5181 35.0781 16.7679C36.0216 16.0178 37.1963 15.6427 38.6022 15.6427C39.7306 15.6427 40.7295 15.8927 41.599 16.3928C42.487 16.8751 43.1529 17.5538 43.5969 18.429L41.5713 19.5274C41.0718 18.3843 40.0821 17.8127 38.6022 17.8127C37.9177 17.8127 37.335 17.9735 36.8541 18.295C36.3731 18.5987 36.1325 19.0362 36.1325 19.6077Z" fill="#498FB6"/>
<path d="M56.1982 15.991H58.6122V29.3863H56.1982V27.4574C55.2177 28.9755 53.7193 29.7346 51.703 29.7346C50.075 29.7346 48.7709 29.2435 47.7904 28.2611C46.81 27.261 46.3197 25.9124 46.3197 24.2158V15.991H48.7338V24.0818C48.7338 25.1713 49.0391 26.0196 49.6495 26.6269C50.26 27.2163 51.1017 27.511 52.1746 27.511C53.377 27.511 54.3483 27.1538 55.0882 26.4394C55.8282 25.7071 56.1982 24.5908 56.1982 23.0906V15.991Z" fill="#498FB6"/>
<path d="M63.5085 13.5531C63.0459 13.5531 62.6575 13.4012 62.343 13.0976C62.0286 12.794 61.8713 12.4279 61.8713 11.9992C61.8713 11.5705 62.0286 11.2044 62.343 10.9008C62.6575 10.5793 63.0459 10.4186 63.5085 10.4186C63.9524 10.4186 64.3316 10.5793 64.6461 10.9008C64.9606 11.2044 65.1178 11.5705 65.1178 11.9992C65.1178 12.4279 64.9606 12.794 64.6461 13.0976C64.3316 13.4012 63.9524 13.5531 63.5085 13.5531ZM62.2875 29.3863V15.991H64.7016V29.3863H62.2875Z" fill="#498FB6"/>
<path fill-rule="evenodd" clip-rule="evenodd" d="M1.76363 29.8871C4.11513 33.8199 8.32709 36.1674 13.0301 36.1674C17.7331 36.1674 21.9443 33.8199 24.2966 29.8871C26.6481 25.955 26.6481 21.2599 24.2966 17.3271L14.3875 0.756628C13.7842 -0.252211 12.276 -0.252209 11.6727 0.75663L1.76363 17.3271C-0.587876 21.2591 -0.587876 25.9543 1.76363 29.8871ZM10.2387 8.63992L12.3514 5.10683C12.6531 4.6024 13.4072 4.6024 13.7088 5.10683L21.8365 18.6989C23.3298 21.196 23.6101 24.086 22.6774 26.7305C22.5803 26.2991 22.4446 25.8577 22.2616 25.4117C21.139 22.6763 18.6004 20.5654 14.7152 19.1373C12.044 18.1591 10.339 16.7203 9.6462 14.8607C8.75383 12.464 9.6859 9.85034 10.2387 8.63992ZM6.63616 14.6644L4.22364 18.6989C2.38537 21.773 2.38537 25.4426 4.22364 28.5167C6.06192 31.5908 9.35355 33.4253 13.0301 33.4253C15.472 33.4253 17.7447 32.6153 19.5343 31.1705C19.7677 30.6032 20.4904 28.5266 19.5975 26.3862C18.7729 24.4098 16.7882 22.8321 13.6983 21.6957C10.2056 20.4165 7.93639 18.4195 6.95517 15.7619C6.82002 15.396 6.71501 15.0293 6.63616 14.6644Z" fill="#498FB6"/>
</g>
<defs>
<clipPath id="clip0_35_325">
<rect width="66" height="37" fill="white"/>
</clipPath>
</defs>
</svg>
