<svg width="72" height="72" viewBox="0 0 72 72" fill="none" xmlns="http://www.w3.org/2000/svg">
<path d="M27.8097 53.601C22.7261 53.601 17.9873 52.125 13.9988 49.5783C17.3852 49.797 23.3615 49.2731 27.0787 45.7337C21.4868 45.4775 18.9649 41.1962 18.636 39.3666C19.1111 39.5496 21.3771 39.7691 22.6563 39.2568C16.2238 37.6468 15.237 32.0115 15.4562 30.2917C16.6623 31.1333 18.7091 31.4261 19.5131 31.3529C13.5192 27.0716 15.6755 20.6313 16.7354 19.2408C21.0369 25.1898 27.4835 28.531 35.4588 28.7168C35.3084 28.0585 35.229 27.3731 35.229 26.6691C35.229 21.6167 39.3199 17.521 44.3662 17.521C47.0028 17.521 49.3786 18.6391 51.0463 20.4275C52.8082 20.0154 55.4598 19.0506 56.7561 18.2162C56.1027 20.5582 54.0685 22.5118 52.8381 23.2359C52.8483 23.2605 52.828 23.2111 52.8381 23.2359C53.9189 23.0727 56.8434 22.5116 57.9988 21.7291C57.4274 23.0448 55.2708 25.2323 53.5009 26.4569C53.8302 40.9543 42.719 53.601 27.8097 53.601Z" fill="#498FB6"/>
</svg>
